<?xml version="1.0" encoding="UTF-8"?><svg id="Layer_2" xmlns="http://www.w3.org/2000/svg" viewBox="0 0 498 310"><defs><style>.cls-1{letter-spacing:-.01em;}.cls-2{letter-spacing:0em;}.cls-3{letter-spacing:0em;}.cls-4{letter-spacing:0em;}.cls-5{stroke-dasharray:0 0 5.8 5.8;}.cls-5,.cls-6,.cls-7,.cls-8,.cls-9,.cls-10{stroke-miterlimit:10;}.cls-5,.cls-6,.cls-7,.cls-9{stroke:#000;}.cls-5,.cls-6,.cls-7,.cls-9,.cls-10{stroke-width:.5px;}.cls-5,.cls-6,.cls-9,.cls-10{fill:none;}.cls-11{letter-spacing:0em;}.cls-12{letter-spacing:0em;}.cls-13{letter-spacing:0em;}.cls-6{stroke-dasharray:0 0 5.8 5.8;}.cls-14{letter-spacing:-.01em;}.cls-15{letter-spacing:0em;}.cls-16{letter-spacing:0em;}.cls-17{letter-spacing:0em;}.cls-18{letter-spacing:0em;}.cls-19{font-family:MyriadPro-Regular, 'Myriad Pro';font-size:12px;}.cls-20{letter-spacing:0em;}.cls-21{letter-spacing:0em;}.cls-22{letter-spacing:0em;}.cls-23{letter-spacing:-.02em;}.cls-24{letter-spacing:0em;}.cls-25{letter-spacing:0em;}.cls-26{letter-spacing:0em;}.cls-8{stroke:#006837;stroke-width:2px;}.cls-27{letter-spacing:-.01em;}.cls-28{letter-spacing:0em;}.cls-29,.cls-30,.cls-31,.cls-32,.cls-33{stroke-width:0px;}.cls-34{letter-spacing:-.03em;}.cls-35{letter-spacing:-.07em;}.cls-36{letter-spacing:.01em;}.cls-37{letter-spacing:0em;}.cls-38{letter-spacing:0em;}.cls-39{letter-spacing:.01em;}.cls-30{fill:#c1d1e0;}.cls-31{fill:#fff;}.cls-32{fill:#faddba;}.cls-33{fill:blue;}.cls-10{stroke:blue;}</style></defs><g id="Layer_1-2"><rect class="cls-30" y="86" width="177" height="172" rx="12" ry="12"/><rect class="cls-32" x="233" width="265" height="310" rx="12" ry="12"/><rect class="cls-31" x="248.25" y="12.25" width="71.5" height="34.5"/><path class="cls-29" d="m319.5,12.5v34h-71V12.5h71m.5-.5h-72v35h72V12h0Z"/><text class="cls-19" transform="translate(262.36 32.57)"><tspan class="cls-23" x="0" y="0">P</tspan><tspan class="cls-13" x="6.19" y="0">r</tspan><tspan class="cls-21" x="10.16" y="0">incipal</tspan></text><rect class="cls-31" x="412.25" y="12.25" width="71.5" height="34.5"/><path class="cls-29" d="m483.5,12.5v34h-71V12.5h71m.5-.5h-72v35h72V12h0Z"/><text class="cls-19" transform="translate(426.36 32.57)"><tspan class="cls-23" x="0" y="0">P</tspan><tspan class="cls-13" x="6.19" y="0">r</tspan><tspan class="cls-21" x="10.16" y="0">incipal</tspan></text><text class="cls-19" transform="translate(354.23 32.59)"><tspan x="0" y="0">. . . . .</tspan></text><rect class="cls-31" x="248.25" y="197.25" width="71.5" height="34.5"/><path class="cls-29" d="m319.5,197.5v34h-71v-34h71m.5-.5h-72v35h72v-35h0Z"/><text class="cls-19" transform="translate(270.36 217.57)"><tspan class="cls-14" x="0" y="0">A</tspan><tspan x="7.2" y="0">ge</tspan><tspan class="cls-22" x="19.92" y="0">n</tspan><tspan class="cls-15" x="26.53" y="0">t</tspan></text><rect class="cls-31" x="412.25" y="197.25" width="71.5" height="34.5"/><path class="cls-29" d="m483.5,197.5v34h-71v-34h71m.5-.5h-72v35h72v-35h0Z"/><text class="cls-19" transform="translate(434.36 217.57)"><tspan class="cls-14" x="0" y="0">A</tspan><tspan x="7.2" y="0">ge</tspan><tspan class="cls-22" x="19.92" y="0">n</tspan><tspan class="cls-15" x="26.53" y="0">t</tspan></text><text class="cls-19" transform="translate(353.16 214.86)"><tspan x="0" y="0">. . . . .</tspan></text><line class="cls-31" x1="270.66" y1="47" x2="270.5" y2="198"/><line class="cls-9" x1="270.66" y1="47" x2="270.66" y2="50"/><line class="cls-6" x1="270.65" y1="55.8" x2="270.51" y2="192.1"/><line class="cls-9" x1="270.5" y1="195" x2="270.5" y2="198"/><line class="cls-31" x1="464.56" y1="47" x2="464.5" y2="198"/><line class="cls-9" x1="464.56" y1="47" x2="464.55" y2="50"/><line class="cls-5" x1="464.55" y1="55.8" x2="464.5" y2="192.1"/><line class="cls-9" x1="464.5" y1="195" x2="464.5" y2="198"/><polyline class="cls-9" points="301 47 301 66 434.66 66 434.66 47"/><polyline class="cls-9" points="301.5 197.5 301.5 177.5 434.66 177 434.5 198"/><rect class="cls-31" x="8.25" y="110.25" width="71.5" height="34.5"/><path class="cls-29" d="m79.5,110.5v34H8.5v-34h71m.5-.5H8v35h72v-35h0Z"/><text class="cls-19" transform="translate(28.36 129.57)"><tspan class="cls-34" x="0" y="0">V</tspan><tspan x="6.3" y="0">alue</tspan></text><rect class="cls-31" x="51.25" y="197.25" width="71.5" height="34.5"/><path class="cls-29" d="m122.5,197.5v34H51.5v-34h71m.5-.5H51v35h72v-35h0Z"/><text class="cls-19" transform="translate(65.36 217.57)"><tspan class="cls-27" x="0" y="0">C</tspan><tspan x="6.83" y="0">o</tspan><tspan class="cls-22" x="13.42" y="0">n</tspan><tspan class="cls-4" x="20.03" y="0">t</tspan><tspan class="cls-2" x="23.93" y="0">e</tspan><tspan class="cls-36" x="29.9" y="0">x</tspan><tspan class="cls-21" x="35.62" y="0">t</tspan></text><rect class="cls-31" x="100.25" y="110.25" width="71.5" height="34.5"/><path class="cls-29" d="m171.5,110.5v34h-71v-34h71m.5-.5h-72v35h72v-35h0Z"/><text class="cls-19" transform="translate(122.36 130.57)"><tspan x="0" y="0">No</tspan><tspan class="cls-11" x="14.48" y="0">r</tspan><tspan x="18.46" y="0">m</tspan></text><rect class="cls-31" x="248.25" y="250.25" width="235.5" height="34.5"/><path class="cls-29" d="m483.5,250.5v34h-235v-34h235m.5-.5h-236v35h236v-35h0Z"/><text class="cls-19" transform="translate(308.36 270.57)"><tspan class="cls-11" x="0" y="0">R</tspan><tspan x="6.5" y="0">esou</tspan><tspan class="cls-1" x="30.47" y="0">r</tspan><tspan class="cls-4" x="34.27" y="0">c</tspan><tspan x="39.58" y="0">e: D</tspan><tspan class="cls-24" x="58.61" y="0">a</tspan><tspan x="64.34" y="0">ta, </tspan><tspan class="cls-13" x="79.13" y="0">D</tspan><tspan x="87.17" y="0">evi</tspan><tspan class="cls-17" x="101.76" y="0">c</tspan><tspan class="cls-14" x="107.06" y="0">e</tspan><tspan x="112.93" y="0">, ...</tspan></text><line class="cls-8" x1="248" y1="133" x2="484" y2="133"/><text class="cls-19" transform="translate(309.11 302.46)"><tspan class="cls-28" x="0" y="0">S</tspan><tspan x="5.99" y="0">ocio</tspan><tspan class="cls-17" x="27.35" y="0">t</tspan><tspan class="cls-15" x="31.25" y="0">echnical </tspan><tspan class="cls-26" x="75.3" y="0">S</tspan><tspan class="cls-4" x="81.12" y="0">y</tspan><tspan x="86.7" y="0">s</tspan><tspan class="cls-17" x="91.45" y="0">t</tspan><tspan x="95.35" y="0">em</tspan></text><rect class="cls-32" x="328" y="137" width="74" height="20"/><text class="cls-19" transform="translate(330.44 150.32)"><tspan class="cls-35" x="0" y="0">T</tspan><tspan x="5.11" y="0">echnical tier</tspan></text><rect class="cls-32" x="345" y="56" width="51" height="20"/><text class="cls-19" transform="translate(349.44 69.32)"><tspan x="0" y="0">i</tspan><tspan class="cls-25" x="2.81" y="0">n</tspan><tspan class="cls-12" x="9.42" y="0">t</tspan><tspan x="13.32" y="0">e</tspan><tspan class="cls-3" x="19.33" y="0">r</tspan><tspan x="23.2" y="0">a</tspan><tspan class="cls-39" x="28.98" y="0">c</tspan><tspan x="34.51" y="0">ts</tspan></text><rect class="cls-31" x="47.25" y="12.25" width="71.5" height="34.5"/><path class="cls-29" d="m118.5,12.5v34H47.5V12.5h71m.5-.5H47v35h72V12h0Z"/><text class="cls-19" transform="translate(52.73 32.46)"><tspan class="cls-16" x="0" y="0">S</tspan><tspan x="5.88" y="0">takeholder</tspan></text><path class="cls-10" d="m247.52,30.51c-45.17,46.3-124.57,68.07-200.02,79.99"/><polygon class="cls-33" points="244.29 31.47 244.5 31.92 247.47 30.54 246.09 33.51 246.54 33.72 248.5 29.5 244.29 31.47"/><path class="cls-10" d="m172.5,127.5c81.44-1.99,128.35-25.67,191.68-50.49"/><polygon class="cls-33" points="362.03 79.6 361.7 79.22 364.14 77.04 360.87 77.14 360.85 76.64 365.5 76.5 362.03 79.6"/><path class="cls-10" d="m247.5,201.5c-37.57-1.98-40.93-2.98-69.03-32.97"/><polygon class="cls-33" points="181.66 169.57 181.44 170.02 178.51 168.56 179.82 171.56 179.36 171.76 177.5 167.5 181.66 169.57"/><path class="cls-10" d="m123.5,217.5c40.53,32.62,69.33,46.67,108.62,54.72"/><polygon class="cls-33" points="228.89 273.08 228.83 272.58 232.07 272.18 229.32 270.4 229.59 269.98 233.5 272.5 228.89 273.08"/><polyline class="cls-9" points="87.5 198 87.5 161.5 136 161.2 136.5 145.5"/><polyline class="cls-9" points="88 161.5 44 161 44 145"/><rect class="cls-32" x="325" y="167" width="80" height="20"/><text class="cls-19" transform="translate(328.44 180.32)"><tspan class="cls-17" x="0" y="0">c</tspan><tspan x="5.3" y="0">ommunic</tspan><tspan class="cls-25" x="53.36" y="0">a</tspan><tspan class="cls-12" x="59.1" y="0">t</tspan><tspan x="63" y="0">es</tspan></text><rect class="cls-32" x="437" y="80" width="55" height="20"/><text class="cls-19" transform="translate(439.44 93.32)"><tspan class="cls-1" x="0" y="0">r</tspan><tspan class="cls-20" x="3.8" y="0">ep</tspan><tspan class="cls-1" x="16.64" y="0">r</tspan><tspan class="cls-20" x="20.45" y="0">ese</tspan><tspan class="cls-25" x="37.22" y="0">n</tspan><tspan x="43.84" y="0">ts</tspan></text><line class="cls-10" x1="83.5" y1="48" x2="83.5" y2="84.59"/><polygon class="cls-33" points="81.91 81.63 82.38 81.46 83.5 84.54 84.62 81.46 85.09 81.63 83.5 86 81.91 81.63"/><line class="cls-7" x1="284.5" y1="232.5" x2="284" y2="250"/><line class="cls-7" x1="448.5" y1="232.5" x2="448" y2="250"/><rect class="cls-32" x="335" y="109" width="55" height="20"/><text class="cls-19" transform="translate(337.44 122.32)"><tspan class="cls-18" x="0" y="0">S</tspan><tspan x="5.99" y="0">ocial tier</tspan></text><rect class="cls-32" x="246" y="80" width="55" height="20"/><text class="cls-19" transform="translate(245.44 93.32)"><tspan class="cls-1" x="0" y="0">r</tspan><tspan class="cls-20" x="3.8" y="0">ep</tspan><tspan class="cls-1" x="16.64" y="0">r</tspan><tspan class="cls-20" x="20.45" y="0">ese</tspan><tspan class="cls-25" x="37.22" y="0">n</tspan><tspan x="43.84" y="0">ts</tspan></text><rect class="cls-31" x="167" y="56" width="51" height="20"/><text class="cls-19" transform="translate(168.44 69.32)"><tspan x="0" y="0">moti</tspan><tspan class="cls-25" x="23.38" y="0">va</tspan><tspan class="cls-17" x="34.84" y="0">t</tspan><tspan x="38.74" y="0">es</tspan></text><rect class="cls-31" x="181" y="116" width="48" height="20"/><text class="cls-19" transform="translate(181.44 129.32)"><tspan class="cls-1" x="0" y="0">r</tspan><tspan class="cls-20" x="3.8" y="0">egul</tspan><tspan class="cls-38" x="25.97" y="0">a</tspan><tspan class="cls-12" x="31.7" y="0">t</tspan><tspan x="35.6" y="0">es</tspan></text><rect class="cls-31" x="64" y="56" width="41" height="15"/><text class="cls-19" transform="translate(62.44 67.32)"><tspan x="0" y="0">specifies</tspan></text><rect class="cls-30" x="56" y="172" width="66" height="15"/><text class="cls-19" transform="translate(58.44 183.32)"><tspan x="0" y="0">encapsul</tspan><tspan class="cls-25" x="44.86" y="0">a</tspan><tspan class="cls-17" x="50.59" y="0">t</tspan><tspan x="54.49" y="0">e</tspan></text><rect class="cls-31" x="177" y="250" width="41" height="20"/><text class="cls-19" transform="translate(181.44 263.32)"><tspan x="0" y="0">defines</tspan></text><rect class="cls-31" x="190" y="182" width="29" height="20"/><text class="cls-19" transform="translate(192.44 195.32)"><tspan x="0" y="0">lea</tspan><tspan class="cls-11" x="14.63" y="0">r</tspan><tspan x="18.6" y="0">ns</tspan></text><text class="cls-19" transform="translate(23.98 249.66)"><tspan x="0" y="0">En</tspan><tspan class="cls-17" x="12.56" y="0">g</tspan><tspan x="19.2" y="0">inee</tspan><tspan class="cls-11" x="40.69" y="0">r</tspan><tspan x="44.66" y="0">ing abst</tspan><tspan class="cls-37" x="84.72" y="0">r</tspan><tspan x="88.58" y="0">a</tspan><tspan class="cls-36" x="94.37" y="0">c</tspan><tspan x="99.9" y="0">tions</tspan></text></g></svg>